<?xml version="1.0" encoding="utf-8"?>
<!-- Generator: Adobe Illustrator 16.0.4, SVG Export Plug-In . SVG Version: 6.00 Build 0)  -->
<!DOCTYPE svg PUBLIC "-//W3C//DTD SVG 1.1//EN" "http://www.w3.org/Graphics/SVG/1.1/DTD/svg11.dtd">
<svg version="1.1" id="Ebene_1" xmlns="http://www.w3.org/2000/svg" xmlns:xlink="http://www.w3.org/1999/xlink" x="0px" y="0px"
	 width="20px" height="60px" viewBox="0 0 20 60" enable-background="new 0 0 20 60" xml:space="preserve">
<polygon opacity="0.15" enable-background="new    " points="9,0 11.781,5.925 18,6.875 13.5,11.487 14.561,18 9,14.925 3.438,18 
	4.5,11.487 0,6.875 6.218,5.925 "/>
<polygon fill="#FFDA00" enable-background="new    " points="9,20 11.781,25.925 18,26.875 13.5,31.486 14.562,38 9,34.924 
	3.438,38 4.5,31.486 0,26.875 6.219,25.925 "/>
<polygon fill="#FF7300" points="9,40 11.781,45.925 18,46.874 13.5,51.486 14.562,58 9,54.924 3.438,58 4.5,51.486 0,46.874 
	6.219,45.925 "/>
</svg>
